<svg width="32" height="32" viewBox="0 0 32 32" fill="none" xmlns="http://www.w3.org/2000/svg">
<path fill-rule="evenodd" clip-rule="evenodd" d="M6.99935 19.3327C6.99935 18.7805 7.44706 18.3327 7.99935 18.3327H18.666C19.2183 18.3327 19.666 18.7805 19.666 19.3327C19.666 19.885 19.2183 20.3327 18.666 20.3327H7.99935C7.44706 20.3327 6.99935 19.885 6.99935 19.3327Z" fill="url(#paint0_linear_12219_55201)"/>
<path fill-rule="evenodd" clip-rule="evenodd" d="M6.99935 23.9994C6.99935 23.4471 7.44706 22.9994 7.99935 22.9994H15.3327C15.885 22.9994 16.3327 23.4471 16.3327 23.9994C16.3327 24.5517 15.885 24.9994 15.3327 24.9994H7.99935C7.44706 24.9994 6.99935 24.5517 6.99935 23.9994Z" fill="url(#paint1_linear_12219_55201)"/>
<path fill-rule="evenodd" clip-rule="evenodd" d="M16.3327 3.7783C15.7188 3.67399 14.882 3.66608 13.3724 3.66608C10.8168 3.66608 9.00035 3.66819 7.62315 3.85251C6.27397 4.03308 5.49872 4.37179 4.93522 4.93529C4.37094 5.49957 4.03272 6.27243 3.85236 7.61388C3.66814 8.9841 3.66602 10.7903 3.66602 13.3327V18.6661C3.66602 21.2085 3.66814 23.0147 3.85236 24.385C4.03272 25.7264 4.37094 26.4993 4.93522 27.0635C5.4995 27.6278 6.27236 27.9661 7.61381 28.1464C8.98403 28.3306 10.7903 28.3327 13.3327 28.3327H18.666C21.2084 28.3327 23.0147 28.3306 24.3849 28.1464C25.7263 27.9661 26.4992 27.6278 27.0635 27.0635C27.6278 26.4993 27.966 25.7264 28.1463 24.385C28.3306 23.0147 28.3327 21.2085 28.3327 18.6661V18.0833C28.3327 16.0353 28.3183 15.0644 28.1009 14.3327H23.9278C22.4173 14.3328 21.183 14.3328 20.2085 14.2018C19.1899 14.0648 18.3068 13.7685 17.6019 13.0635C16.897 12.3586 16.6006 11.4755 16.4636 10.4569C16.3326 9.48242 16.3327 8.24811 16.3327 6.73767V3.7783ZM18.3327 4.81202V6.66608C18.3327 8.2657 18.3348 9.36482 18.4458 10.1904C18.5529 10.9872 18.7447 11.3779 19.0161 11.6493C19.2875 11.9207 19.6782 12.1125 20.475 12.2196C21.3006 12.3306 22.3997 12.3327 23.9993 12.3327H26.692C26.2967 11.9494 25.7903 11.49 25.1327 10.8981L19.8543 6.14757C19.2071 5.56512 18.7255 5.13518 18.3327 4.81202ZM13.5666 1.66605C15.4128 1.66556 16.6055 1.66524 17.7032 2.08649C18.801 2.50773 19.6836 3.30248 21.0491 4.53208C21.0962 4.57453 21.1439 4.6175 21.1922 4.66098L26.4706 9.41151C26.5268 9.46209 26.5823 9.51202 26.6371 9.56134C28.2154 10.9809 29.2359 11.8988 29.7848 13.1314C30.3338 14.3639 30.3334 15.7366 30.3327 17.8592C30.3327 17.933 30.3327 18.0077 30.3327 18.0833V18.7413C30.3327 21.1916 30.3327 23.1325 30.1285 24.6514C29.9183 26.2147 29.4755 27.4799 28.4777 28.4778C27.4799 29.4756 26.2146 29.9184 24.6514 30.1286C23.1324 30.3328 21.1916 30.3328 18.7412 30.3327H13.2575C10.8071 30.3328 8.86627 30.3328 7.34732 30.1286C5.78409 29.9184 4.51882 29.4756 3.52101 28.4778C2.52319 27.4799 2.08037 26.2147 1.8702 24.6514C1.66598 23.1325 1.66599 21.1917 1.66602 18.7413V13.2575C1.66599 10.8072 1.66598 8.86634 1.8702 7.34738C2.08037 5.78416 2.52319 4.51889 3.52101 3.52107C4.5196 2.52248 5.78911 2.08014 7.35784 1.87018C8.88312 1.66605 10.8336 1.66606 13.2974 1.66608L13.3724 1.66608C13.4379 1.66608 13.5027 1.66607 13.5666 1.66605Z" fill="url(#paint2_linear_12219_55201)"/>
<defs>
<linearGradient id="paint0_linear_12219_55201" x1="1.66602" y1="30.3327" x2="35.7307" y2="20.6432" gradientUnits="userSpaceOnUse">
<stop stop-color="#B070EF"/>
<stop offset="0.495" stop-color="#BF8BF3"/>
<stop offset="1" stop-color="#FDB99B"/>
</linearGradient>
<linearGradient id="paint1_linear_12219_55201" x1="1.66602" y1="30.3327" x2="35.7307" y2="20.6432" gradientUnits="userSpaceOnUse">
<stop stop-color="#B070EF"/>
<stop offset="0.495" stop-color="#BF8BF3"/>
<stop offset="1" stop-color="#FDB99B"/>
</linearGradient>
<linearGradient id="paint2_linear_12219_55201" x1="1.66602" y1="30.3327" x2="35.7307" y2="20.6432" gradientUnits="userSpaceOnUse">
<stop stop-color="#B070EF"/>
<stop offset="0.495" stop-color="#BF8BF3"/>
<stop offset="1" stop-color="#FDB99B"/>
</linearGradient>
</defs>
</svg>
